<svg width="65" height="25" viewBox="0 0 65 25" fill="none" xmlns="http://www.w3.org/2000/svg">
<g clip-path="url(#clip0_496_493)">
<path d="M1.02478 23.3397C1.72851 22.4153 2.08037 21.0589 2.08037 19.2704V11.4554C2.08037 11.1243 1.86909 10.913 1.53802 10.913H0.632987C-0.211321 10.913 -0.211321 8.7203 0.632987 8.6604L1.56713 8.60051C1.89987 8.56973 2.08037 8.38923 2.10949 8.05649C2.35072 4.71253 3.8006 0.666504 9.79894 0.666504C13.5064 0.666504 16.3538 2.87751 16.5908 4.33155C16.6957 5.15923 13.6287 6.19902 12.2171 5.53438C11.6098 3.57791 11.7146 2.8484 9.947 2.8484C7.34337 2.8484 7.08301 5.50776 6.93162 8.09975C6.9025 8.4616 7.11295 8.67288 7.47563 8.6421L16.4278 8.6604C16.9103 8.6604 17.5125 8.62963 17.5125 10.1377V19.2696C17.5125 21.9522 17.263 21.9522 18.3186 23.3389C18.6496 23.7606 18.559 24.3637 17.8968 24.3637H12.3069C11.6439 24.3637 11.5533 23.7615 11.8852 23.3389C12.9408 21.9522 12.6912 21.9522 12.6912 19.2696V14.5073C12.6912 12.1865 12.6912 10.8822 10.8221 10.8822H7.44652C7.11545 10.8822 6.90416 11.0935 6.90416 11.4246V19.2696C6.90416 21.9522 6.65462 21.9522 8.25256 23.3389C8.73503 23.7606 8.61358 24.3637 7.61954 24.3637H1.44652C0.783549 24.3637 0.692879 23.7615 1.02478 23.3389V23.3397Z" fill="white"/>
<path d="M19.944 23.3396C20.9996 21.953 20.75 21.953 20.75 19.2703V13.9657C20.75 11.4037 20.9996 11.4037 20.0347 10.1676C19.7019 9.74585 19.5821 9.20266 20.2443 8.99221L23.4917 7.81683C24.3959 7.51654 24.9682 7.78772 24.9682 8.38996V8.9631C24.9682 9.47467 25.2394 9.53456 25.5722 9.20349C26.8682 7.96739 28.6458 7.54565 30.0017 7.54565C33.5885 7.54565 35.3062 9.59529 35.3062 13.242V20.7177C35.3062 22.225 35.7588 22.4662 36.633 22.3755C37.3259 22.3157 37.5672 22.9487 37.1155 23.4004C36.5423 24.0026 35.2172 24.6664 33.769 24.6664C31.8708 24.6664 30.4841 23.7015 30.4841 20.7485V13.6039C30.4841 11.7056 30.1223 10.1984 28.2548 10.1984C26.7176 10.1984 25.6021 11.4944 25.5722 13.6347V19.2712C25.5722 21.9538 25.3226 21.9538 26.3765 23.3405C26.7076 23.7622 26.6186 24.3653 25.9548 24.3653H20.3666C19.7028 24.3653 19.6129 23.763 19.9448 23.3405L19.944 23.3396Z" fill="white"/>
<path d="M38.6328 23.3396C39.6868 21.953 39.4372 21.953 39.4372 19.2703V13.9657C39.4372 11.4037 39.6868 11.4037 38.7219 10.1676C38.3908 9.74585 38.2702 9.20266 38.9331 8.99221L42.1806 7.81683C43.0848 7.51654 43.6571 7.78772 43.6571 8.38996V8.9631C43.6571 9.47467 43.9283 9.53456 44.2594 9.20349C45.5562 7.96739 47.3346 7.54565 48.6905 7.54565C52.2774 7.54565 53.9951 9.59529 53.9951 13.242V20.7177C53.9951 22.225 54.4476 22.4662 55.3219 22.3755C56.0148 22.3157 56.256 22.9487 55.8043 23.4004C55.2312 24.0026 53.9044 24.6664 52.4596 24.6664C50.5597 24.6664 49.173 23.7015 49.173 20.7485V13.6039C49.173 11.7056 48.8111 10.1984 46.9437 10.1984C45.4065 10.1984 44.291 11.4944 44.2602 13.6347V19.2712C44.2602 21.9538 44.0106 21.9538 45.0662 23.3405C45.3973 23.7622 45.3083 24.3653 44.6445 24.3653H39.0563C38.3925 24.3653 38.3026 23.763 38.6345 23.3405L38.6328 23.3396Z" fill="white"/>
<path d="M57.5719 23.3397C58.6258 21.953 58.3763 21.953 58.3763 19.2704V13.8751C58.3763 11.2532 58.6258 11.2532 57.903 10.0479C57.6318 9.56541 57.5411 8.93239 58.2341 8.75188L61.662 7.75701C62.5662 7.51661 63.1984 7.69712 63.1984 9.20357V19.2704C63.1984 21.953 62.9489 21.953 64.0045 23.3397C64.3355 23.7614 64.2465 24.3645 63.5827 24.3645H57.9945C57.3307 24.3645 57.2408 23.7623 57.5727 23.3397H57.5719Z" fill="white"/>
<path d="M14.3706 7.06493C15.6229 7.06493 16.6382 6.0497 16.6382 4.79736C16.6382 3.54501 15.6229 2.52979 14.3706 2.52979C13.1183 2.52979 12.103 3.54501 12.103 4.79736C12.103 6.0497 13.1183 7.06493 14.3706 7.06493Z" fill="white"/>
<path d="M60.6654 6.11594C58.9543 6.11594 57.7307 5.04371 57.7332 3.55224C57.7357 2.0799 58.9917 1.00767 60.7003 1.01765C62.3232 1.02763 63.5876 2.12731 63.6026 3.53643C63.6167 5.00711 62.3523 6.11594 60.6662 6.11594H60.6654Z" fill="white"/>
</g>
<defs>
<clipPath id="clip0_496_493">
<rect width="64.1916" height="24" fill="white" transform="translate(0 0.666504)"/>
</clipPath>
</defs>
</svg>
