<svg width="86" height="32" viewBox="0 0 86 32" fill="none" xmlns="http://www.w3.org/2000/svg">
<g clip-path="url(#clip0_496_225)">
<path d="M1.36645 30.231C2.30476 28.9984 2.77391 27.1898 2.77391 24.8052V14.3851C2.77391 13.9437 2.4922 13.662 2.05077 13.662H0.844065C-0.28168 13.662 -0.28168 10.7384 0.844065 10.6585L2.08959 10.5787C2.53324 10.5376 2.77391 10.297 2.81273 9.85332C3.13437 5.3947 5.06755 0 13.0653 0C18.0086 0 21.8051 2.94801 22.1212 4.88673C22.261 5.9903 18.1717 7.37668 16.2895 6.4905C15.4799 3.88188 15.6196 2.90919 13.2628 2.90919C9.79124 2.90919 9.44409 6.45501 9.24224 9.91099C9.20342 10.3935 9.48402 10.6752 9.96759 10.6341L21.9038 10.6585C22.5471 10.6585 23.3501 10.6175 23.3501 12.6283V24.8041C23.3501 28.381 23.0174 28.381 24.4248 30.2299C24.8662 30.7922 24.7454 31.5963 23.8625 31.5963H16.4093C15.5253 31.5963 15.4044 30.7933 15.847 30.2299C17.2544 28.381 16.9217 28.381 16.9217 24.8041V18.4545C16.9217 15.36 16.9217 13.621 14.4295 13.621H9.92877C9.48735 13.621 9.20563 13.9027 9.20563 14.3441V24.8041C9.20563 28.381 8.8729 28.381 11.0035 30.2299C11.6468 30.7922 11.4849 31.5963 10.1595 31.5963H1.92877C1.04481 31.5963 0.92392 30.7933 1.36645 30.2299V30.231Z" fill="#ED762F"/>
<path d="M26.5919 30.231C27.9994 28.3821 27.6666 28.3821 27.6666 24.8052V17.7325C27.6666 14.3164 27.9994 14.3164 26.7128 12.6683C26.2691 12.106 26.1094 11.3817 26.9923 11.1011L31.3222 9.53393C32.5278 9.13354 33.2909 9.49511 33.2909 10.2981V11.0623C33.2909 11.7444 33.6525 11.8242 34.0961 11.3828C35.8241 9.73468 38.1943 9.17236 40.0021 9.17236C44.7846 9.17236 47.0749 11.9052 47.0749 16.7675V26.7351C47.0749 28.7448 47.6783 29.0664 48.8439 28.9456C49.7678 28.8657 50.0895 29.7097 49.4872 30.312C48.7231 31.115 46.9562 32 45.0253 32C42.4943 32 40.6454 30.7135 40.6454 26.7761V17.25C40.6454 14.719 40.163 12.7093 37.673 12.7093C35.6234 12.7093 34.1361 14.4373 34.0961 17.291V24.8064C34.0961 28.3832 33.7634 28.3832 35.1686 30.2321C35.6101 30.7944 35.4914 31.5985 34.6063 31.5985H27.1553C26.2703 31.5985 26.1505 30.7955 26.593 30.2321L26.5919 30.231Z" fill="#ED762F"/>
<path d="M51.5102 30.231C52.9155 28.3821 52.5827 28.3821 52.5827 24.8052V17.7325C52.5827 14.3164 52.9155 14.3164 51.6289 12.6683C51.1875 12.106 51.0267 11.3817 51.9106 11.1011L56.2406 9.53393C57.4462 9.13354 58.2092 9.49511 58.2092 10.2981V11.0623C58.2092 11.7444 58.5708 11.8242 59.0122 11.3828C60.7413 9.73468 63.1126 9.17236 64.9205 9.17236C69.7029 9.17236 71.9932 11.9052 71.9932 16.7675V26.7351C71.9932 28.7448 72.5966 29.0664 73.7623 28.9456C74.6862 28.8657 75.0078 29.7097 74.4055 30.312C73.6414 31.115 71.8723 32 69.9458 32C67.4126 32 65.5637 30.7135 65.5637 26.7761V17.25C65.5637 14.719 65.0813 12.7093 62.5913 12.7093C60.5417 12.7093 59.0544 14.4373 59.0133 17.291V24.8064C59.0133 28.3832 58.6806 28.3832 60.0881 30.2321C60.5295 30.7944 60.4108 31.5985 59.5258 31.5985H52.0748C51.1897 31.5985 51.0699 30.7955 51.5124 30.2321L51.5102 30.231Z" fill="#ED762F"/>
<path d="M76.7626 30.231C78.1678 28.3821 77.8351 28.3821 77.8351 24.8053V17.6116C77.8351 14.1157 78.1678 14.1157 77.204 12.5086C76.8424 11.8653 76.7215 11.0213 77.6454 10.7806L82.216 9.45409C83.4216 9.13356 84.2646 9.37424 84.2646 11.3828V24.8053C84.2646 28.3821 83.9318 28.3821 85.3393 30.231C85.7807 30.7933 85.662 31.5974 84.777 31.5974H77.326C76.4409 31.5974 76.3211 30.7945 76.7637 30.231H76.7626Z" fill="#ED762F"/>
<path d="M19.1609 8.53123C20.8307 8.53123 22.1843 7.1776 22.1843 5.50781C22.1843 3.83801 20.8307 2.48438 19.1609 2.48438C17.4911 2.48438 16.1375 3.83801 16.1375 5.50781C16.1375 7.1776 17.4911 8.53123 19.1609 8.53123Z" fill="#ED762F"/>
<path d="M80.8874 7.26584C78.606 7.26584 76.9745 5.8362 76.9778 3.84756C76.9811 1.88444 78.6559 0.4548 80.934 0.46811C83.0978 0.481419 84.7837 1.94766 84.8037 3.82649C84.8225 5.78739 83.1367 7.26584 80.8885 7.26584H80.8874Z" fill="#ED762F"/>
</g>
<defs>
<clipPath id="clip0_496_225">
<rect width="85.5888" height="32" fill="white"/>
</clipPath>
</defs>
</svg>
